<?xml version="1.0" standalone="no"?>
<!DOCTYPE svg PUBLIC "-//W3C//DTD SVG 20010904//EN"
 "http://www.w3.org/TR/2001/REC-SVG-20010904/DTD/svg10.dtd">
<svg version="1.0" xmlns="http://www.w3.org/2000/svg"
 width="260.000000pt" height="260.000000pt" viewBox="0 0 260.000000 260.000000"
 preserveAspectRatio="xMidYMid meet">
<metadata>
Created by potrace 1.14, written by Peter Selinger 2001-2017
</metadata>
<g transform="translate(0.000000,260.000000) scale(0.100000,-0.100000)"
fill="#000000" stroke="none">
<path d="M260 1285 l0 -1055 1050 0 1050 0 0 1055 0 1055 -1050 0 -1050 0 0
-1055z m716 884 c12 -13 70 -214 169 -586 83 -312 156 -568 161 -570 6 -2 76
246 165 584 l155 588 272 3 272 2 0 -900 0 -900 -170 0 -170 0 0 660 c0 624
-4 721 -27 633 -4 -16 -77 -311 -163 -658 l-155 -630 -180 -3 -180 -2 -159
657 c-88 362 -164 669 -170 683 -14 33 -23 -283 -25 -887 l-1 -453 -165 0
-165 0 0 900 0 900 258 0 c249 0 260 -1 278 -21z"/>
</g>
</svg>
